<svg xmlns="http://www.w3.org/2000/svg" viewBox="0 0 48 48"><defs><style>.cls-1{fill:#9fdbf3;}.cls-2{fill:#b2e5fb;}.cls-3{fill:#5b9ad8;}.cls-4{fill:#6fabe6;}.cls-5{fill:#82bcf4;}.cls-6{fill:#8bd1ea;}.cls-7{fill:#919191;}</style></defs><title>Bill</title><g id="Bill"><path class="cls-1" d="M39,7V39l-1,1-3-3-3,3-3-3-3,3-3-3-3,3-3-3v6a4,4,0,0,1-8,0V5A4,4,0,0,0,6,1.13C5.17.9-1.19,1,33,1A6,6,0,0,1,39,7Z"/><path class="cls-2" d="M33,1C3.92,1,6,.93,6,1.13A4,4,0,0,1,8.46,3H16a4,4,0,0,1,4,4V24h5a1,1,0,0,1,0,2H20v4h5a1,1,0,0,1,0,2H20v8l3-3,3,3,3-3,3,3,3-3,3,3,1-1V7A6,6,0,0,0,33,1Z"/><path class="cls-3" d="M9,5v6H1V5A4,4,0,0,1,9,5Z"/><path class="cls-4" d="M47,37c0,6.17.18,6.75-.54,8A4,4,0,0,1,43,47H13a4,4,0,0,0,4-4V37l3,3,3-3,3,3,3-3,3,3,3-3,3,3,3-3,3,3Z"/><path class="cls-5" d="M47,37c0,6.17.18,6.75-.54,8H24a4,4,0,0,1-4-4V40l3-3,3,3,3-3,3,3,3-3,3,3,3-3,3,3Z"/><rect class="cls-6" x="31.09" y="37.79" width="2.83" height="1.41" transform="translate(-17.7 34.26) rotate(-45)"/><polygon class="cls-6" points="39 37 39 39 38 40 37 39 39 37"/><path class="cls-6" d="M17,39v4a4,4,0,0,1-5,3.87A4,4,0,0,0,15,43V37Z"/><rect class="cls-6" x="19.09" y="37.79" width="2.83" height="1.41" transform="translate(-21.22 25.77) rotate(-45)"/><rect class="cls-6" x="25.09" y="37.79" width="2.83" height="1.41" transform="translate(-19.46 30.01) rotate(-45)"/><path class="cls-5" d="M25,26H20V24h5A1,1,0,0,1,25,26Z"/><path class="cls-4" d="M20,24v2H14a1,1,0,0,1,0-2Z"/><path class="cls-5" d="M34,26H30a1,1,0,0,1,0-2h4A1,1,0,0,1,34,26Z"/><path class="cls-5" d="M25,32H20V30h5A1,1,0,0,1,25,32Z"/><path class="cls-4" d="M20,30v2H14a1,1,0,0,1,0-2Z"/><path class="cls-5" d="M34,32H30a1,1,0,0,1,0-2h4A1,1,0,0,1,34,32Z"/><path class="cls-7" d="M25,12a1.91,1.91,0,0,1-2-1.8,2,2,0,0,1,4,0,1,1,0,0,0,1,1c1.86,0,1.1-3.9-2-4.66V6a1,1,0,0,0-2,0v.54A3.78,3.78,0,0,0,25,14a1.91,1.91,0,0,1,2,1.8,2,2,0,0,1-4,0,1,1,0,0,0-1-1c-1.86,0-1.1,3.9,2,4.66V20a1,1,0,0,0,2,0v-.54A3.78,3.78,0,0,0,25,12Z"/></g></svg>